<svg xmlns="http://www.w3.org/2000/svg" version="1.1" xmlns:xlink="http://www.w3.org/1999/xlink" xmlns:svgjs="http://svgjs.dev/svgjs" width="1500" height="276" viewBox="0 0 1500 276"><g transform="matrix(1,0,0,1,-0.9090909090909918,-1.5454313729033515)"><svg viewBox="0 0 396 73" data-background-color="#000000" preserveAspectRatio="xMidYMid meet" height="276" width="1500" xmlns="http://www.w3.org/2000/svg" xmlns:xlink="http://www.w3.org/1999/xlink"><g id="tight-bounds" transform="matrix(1,0,0,1,0.2400000000000091,0.4087553993548738)"><svg viewBox="0 0 395.52 72.18234322532656" height="72.18234322532656" width="395.52"><g><svg viewBox="0 0 519.8294945933962 94.86880814469197" height="72.18234322532656" width="395.52"><g transform="matrix(1,0,0,1,124.30949459339624,16.2572763161316)"><svg viewBox="0 0 395.52 62.35425551242877" height="62.35425551242877" width="395.52"><g id="textblocktransform"><svg viewBox="0 0 395.52 62.35425551242877" height="62.35425551242877" width="395.52" id="textblock"><g><svg viewBox="0 0 395.52 62.35425551242877" height="62.35425551242877" width="395.52"><g transform="matrix(1,0,0,1,0,0)"><svg width="395.52" viewBox="2.76 -36.23 295.61 46.61" height="62.35425551242877" data-palette-color="#f1f1f1"><path d="M7.67-16.63L7.67-16.63Q7.67-9.96 9.75-6.63 11.84-3.3 16.14-3.3L16.14-3.3Q18.6-3.3 20.61-4.97 22.61-6.64 24-10.18L24-10.18 27.88-8.59Q24.24 0.49 16.09 0.49L16.09 0.49Q9.67 0.49 6.21-3.93 2.76-8.35 2.76-16.63L2.76-16.63Q2.76-33.45 15.84-33.45L15.84-33.45Q24.12-33.45 27.22-25.27L27.22-25.27 23.12-23.68Q22.22-26.44 20.3-28.04 18.38-29.64 15.87-29.64L15.87-29.64Q11.69-29.64 9.68-26.49 7.67-23.34 7.67-16.63ZM56.78-13.23L56.78-13.23Q56.78-6.57 53.72-3.04 50.66 0.49 44.87 0.49L44.87 0.49Q39.21 0.49 36.19-3.08 33.18-6.64 33.18-13.23L33.18-13.23Q33.18-20.04 36.26-23.47 39.35-26.9 45.02-26.9L45.02-26.9Q50.97-26.9 53.88-23.51 56.78-20.12 56.78-13.23ZM52.17-13.23L52.17-13.23Q52.17-18.48 50.5-21.07 48.83-23.66 45.09-23.66L45.09-23.66Q41.31-23.66 39.55-21.02 37.79-18.38 37.79-13.23L37.79-13.23Q37.79-8.11 39.55-5.43 41.31-2.76 44.82-2.76L44.82-2.76Q48.7-2.76 50.44-5.37 52.17-7.98 52.17-13.23ZM81.17-4.25L81.05-4.25Q79.85-1.68 77.88-0.52 75.9 0.63 72.94 0.63L72.94 0.63Q68.01 0.63 65.69-2.76 63.37-6.15 63.37-12.99L63.37-12.99Q63.37-26.81 72.94-26.81L72.94-26.81Q75.9-26.81 77.89-25.76 79.88-24.71 81.07-22.31L81.07-22.31 81.12-22.31 81.07-26 81.07-36.23 85.47-36.23 85.47-5.44Q85.47-1.32 85.62 0L85.62 0 81.42 0Q81.32-0.37 81.25-1.78 81.17-3.2 81.17-4.25L81.17-4.25ZM67.91-13.13L67.91-13.13Q67.91-7.71 69.37-5.24 70.82-2.76 74.09-2.76L74.09-2.76Q77.66-2.76 79.37-5.33 81.07-7.91 81.07-13.53L81.07-13.53Q81.07-18.77 79.43-21.17 77.78-23.56 74.14-23.56L74.14-23.56Q70.84-23.56 69.38-21.04 67.91-18.53 67.91-13.13ZM116.72-12.28L97.87-12.28Q97.87-7.84 99.83-5.32 101.8-2.81 105.22-2.81L105.22-2.81Q107.73-2.81 109.62-3.89 111.52-4.98 112.15-6.86L112.15-6.86 116.01-5.76Q114.93-2.73 112.07-1.12 109.2 0.49 105.22 0.49L105.22 0.49Q99.46 0.49 96.35-3.1 93.25-6.69 93.25-13.38L93.25-13.38Q93.25-19.9 96.29-23.4 99.33-26.9 105.07-26.9L105.07-26.9Q110.81-26.9 113.76-23.41 116.72-19.92 116.72-12.87L116.72-12.87 116.72-12.28ZM105.12-23.66L105.12-23.66Q101.85-23.66 99.94-21.52 98.04-19.38 97.92-15.65L97.92-15.65 112.18-15.65Q111.49-23.66 105.12-23.66ZM146.62-13.33L146.62-13.33Q146.62-6.4 144.14-2.95 141.66 0.49 137.05 0.49L137.05 0.49Q131.09 0.49 128.9-4L128.9-4 128.85-4Q128.85-2.83 128.76-1.56 128.68-0.29 128.63 0L128.63 0 124.38 0Q124.53-1.32 124.53-5.44L124.53-5.44 124.53-36.23 128.92-36.23 128.92-25.9Q128.92-24.32 128.82-22.07L128.82-22.07 128.92-22.07Q131.14-26.95 137.07-26.95L137.07-26.95Q146.62-26.95 146.62-13.33ZM142.08-13.18L142.08-13.18Q142.08-18.65 140.58-21.11 139.08-23.56 135.88-23.56L135.88-23.56Q132.24-23.56 130.58-20.89 128.92-18.21 128.92-12.79L128.92-12.79Q128.92-7.69 130.53-5.22 132.14-2.76 135.83-2.76L135.83-2.76Q139.13-2.76 140.6-5.31 142.08-7.86 142.08-13.18ZM168.2-26.42L168.2-3.47 177.48-3.47 177.48 0 153.5 0 153.5-3.47 163.81-3.47 163.81-22.95 156.02-22.95 156.02-26.42 168.2-26.42ZM168.2-31.54L163.32-31.54 163.32-36.23 168.2-36.23 168.2-31.54ZM197.98-36.23L197.98-3.47 207.26-3.47 207.26 0 183.29 0 183.29-3.47 193.59-3.47 193.59-32.76 186.53-32.76 186.53-36.23 197.98-36.23ZM228.21-26.42L228.21-3.47 237.48-3.47 237.48 0 213.51 0 213.51-3.47 223.81-3.47 223.81-22.95 216.02-22.95 216.02-26.42 228.21-26.42ZM228.21-31.54L223.32-31.54 223.32-36.23 228.21-36.23 228.21-31.54ZM248.76-22.95L244.66-22.95 244.66-26.42 248.81-26.42 250.22-33.3 253.15-33.3 253.15-26.42 263.7-26.42 263.7-22.95 253.15-22.95 253.15-7.03Q253.15-5.1 254.19-4.17 255.23-3.25 257.6-3.25L257.6-3.25Q260.87-3.25 264.85-4.08L264.85-4.08 264.85-0.73Q260.72 0.39 256.67 0.39L256.67 0.39Q252.71 0.39 250.74-1.28 248.76-2.95 248.76-6.57L248.76-6.57 248.76-22.95ZM277.15 10.38L277.15 10.38Q275.34 10.38 274.12 10.11L274.12 10.11 274.12 6.81Q275.05 6.96 276.17 6.96L276.17 6.96Q278.1 6.96 279.8 5.52 281.5 4.08 282.67 0.93L282.67 0.93 283.11-0.27 271.63-26.42 276.32-26.42 282.77-10.74Q284.99-5.27 285.16-4.54L285.16-4.54 286.16-7.23 293.73-26.42 298.37-26.42 287.23 0Q285.06 5.74 282.73 8.06 280.4 10.38 277.15 10.38Z" opacity="1" transform="matrix(1,0,0,1,0,0)" fill="#0a0a0a" class="wordmark-text-0" data-fill-palette-color="primary" id="text-0"></path></svg></g></svg></g></svg></g></svg></g><g><svg viewBox="0 0 94.86880814469197 94.86880814469197" height="94.86880814469197" width="94.86880814469197"><g><svg></svg></g><g id="icon-0"><svg viewBox="0 0 94.86880814469197 94.86880814469197" height="94.86880814469197" width="94.86880814469197"><g><path d="M0 47.434c0-26.197 21.237-47.434 47.434-47.434 26.197 0 47.434 21.237 47.435 47.434 0 26.197-21.237 47.434-47.435 47.435-26.197 0-47.434-21.237-47.434-47.435zM47.434 89.246c23.092 0 41.811-18.72 41.812-41.812 0-23.092-18.72-41.811-41.812-41.811-23.092 0-41.811 18.72-41.811 41.811 0 23.092 18.72 41.811 41.811 41.812z" data-fill-palette-color="tertiary" fill="#0a0a0a" stroke="transparent"></path></g><g transform="matrix(1,0,0,1,33.54025141109324,23.486667562300635)"><svg viewBox="0 0 27.788305322505494 47.8954730200907" height="47.8954730200907" width="27.788305322505494"><g><svg xmlns="http://www.w3.org/2000/svg" xmlns:xlink="http://www.w3.org/1999/xlink" version="1.1" x="0" y="0" viewBox="21.679106830508616 1 56.85827385947762 98" enable-background="new 0 0 100 100" xml:space="preserve" height="47.8954730200907" width="27.788305322505494" class="icon-dxe-0" data-fill-palette-color="accent" id="dxe-0"><g fill="#0a0a0a" data-fill-palette-color="accent"><path fill-rule="evenodd" clip-rule="evenodd" d="M30.545 28.822C29.38 36.039 30.875 43.672 37.045 47.863 30.758 19.81 45.756 8.664 59.646 1 43.466 24.046 76.542 24.644 78.423 51.13 80.028 73.71 64.507 91.317 46.639 99 46.845 76.175 24.089 73.067 21.801 54.397 20.905 47.094 25.062 33.766 30.545 28.822" fill="#0a0a0a" data-fill-palette-color="accent"></path></g></svg></g></svg></g></svg></g></svg></g></svg></g><defs></defs></svg><rect width="395.52" height="72.18234322532656" fill="none" stroke="none" visibility="hidden"></rect></g></svg></g></svg>